<svg width="32" height="44" viewBox="0 0 32 44" fill="none" xmlns="http://www.w3.org/2000/svg">
<path d="M31.7578 40.0107L29.5248 14.7107C29.3571 12.8049 27.7868 11.3667 25.8728 11.3667C25.4331 11.3667 25.0753 11.7242 25.0753 12.1642V16.1086C25.0753 16.4991 24.7802 16.8401 24.3906 16.8648C23.9634 16.8923 23.6087 16.5541 23.6087 16.1333V7.60833C23.6087 3.41275 20.1959 0 16.0003 0C11.8047 0 8.392 3.41275 8.392 7.60833V11.3667H6.12783C4.21383 11.3667 2.64358 12.8049 2.47583 14.7107L0.242831 40.0107C0.0549143 42.1488 1.74094 44 3.89575 44H28.1049C30.26 44 31.9457 42.1485 31.7578 40.0107ZM11.7837 39.1417H6.467C6.06201 39.1417 5.73366 38.8133 5.73366 38.4083C5.73366 38.0034 6.06201 37.675 6.467 37.675H11.7837C12.1886 37.675 12.517 38.0034 12.517 38.4083C12.517 38.8133 12.1886 39.1417 11.7837 39.1417ZM11.7837 35.475H6.467C6.06201 35.475 5.73366 35.1467 5.73366 34.7417C5.73366 34.3367 6.06201 34.0083 6.467 34.0083H11.7837C12.1886 34.0083 12.517 34.3367 12.517 34.7417C12.517 35.1467 12.1886 35.475 11.7837 35.475ZM22.142 11.3667H12.1228C11.6828 11.3667 11.3253 11.7242 11.3253 12.1642V16.1086C11.3253 16.4991 11.0302 16.8401 10.6406 16.8648C10.2134 16.8923 9.85866 16.5541 9.85866 16.1333V7.60833C9.85866 4.22217 12.6142 1.46667 16.0003 1.46667C19.3865 1.46667 22.142 4.22217 22.142 7.60833V11.3667Z" fill="#DB3022"/>
</svg>
