<svg width="16" height="16" viewBox="0 0 16 16" fill="none" xmlns="http://www.w3.org/2000/svg">
<path d="M6.00016 14.6667C6.36835 14.6667 6.66683 14.3682 6.66683 14C6.66683 13.6319 6.36835 13.3334 6.00016 13.3334C5.63197 13.3334 5.3335 13.6319 5.3335 14C5.3335 14.3682 5.63197 14.6667 6.00016 14.6667Z" stroke="white" stroke-width="1.33333" stroke-linecap="round" stroke-linejoin="round"/>
<path d="M13.3332 14.6667C13.7014 14.6667 13.9998 14.3682 13.9998 14C13.9998 13.6319 13.7014 13.3334 13.3332 13.3334C12.965 13.3334 12.6665 13.6319 12.6665 14C12.6665 14.3682 12.965 14.6667 13.3332 14.6667Z" stroke="white" stroke-width="1.33333" stroke-linecap="round" stroke-linejoin="round"/>
<path d="M0.666504 0.666626H3.33317L5.11984 9.59329C5.1808 9.90022 5.34778 10.1759 5.59153 10.3722C5.83529 10.5684 6.1403 10.6726 6.45317 10.6666H12.9332C13.246 10.6726 13.551 10.5684 13.7948 10.3722C14.0386 10.1759 14.2055 9.90022 14.2665 9.59329L15.3332 3.99996H3.99984" stroke="white" stroke-width="1.33333" stroke-linecap="round" stroke-linejoin="round"/>
</svg>
