<svg width="106" height="24" viewBox="0 0 106 24" fill="none" xmlns="http://www.w3.org/2000/svg">
<path d="M27.25 16.168C29.658 16.168 31.38 14.418 31.38 11.954V6.382H29.952V11.926C29.952 13.648 28.832 14.88 27.25 14.88C25.654 14.88 24.534 13.648 24.534 11.926V6.382H23.12V11.954C23.12 14.418 24.828 16.168 27.25 16.168ZM37.5123 8.594C36.3923 8.594 35.4963 9.126 34.9363 10.008V6.214H33.5643V16H34.9363V14.74C35.4963 15.636 36.3923 16.168 37.5123 16.168C39.4163 16.168 40.8443 14.6 40.8443 12.374C40.8443 10.162 39.4163 8.594 37.5123 8.594ZM37.1763 14.964C35.8743 14.964 34.9363 13.886 34.9363 12.374C34.9363 10.862 35.8743 9.798 37.1763 9.798C38.5063 9.798 39.4443 10.862 39.4443 12.374C39.4443 13.886 38.5063 14.964 37.1763 14.964ZM45.5558 8.594C44.7578 8.594 43.8478 8.804 42.8118 9.322L43.3158 10.344C43.9458 10.022 44.6458 9.742 45.3598 9.742C46.8018 9.742 47.2218 10.708 47.2218 11.618V11.842C46.5218 11.604 45.7518 11.45 45.0378 11.45C43.4418 11.45 42.1398 12.416 42.1398 13.858C42.1398 15.272 43.2738 16.168 44.8138 16.168C45.6958 16.168 46.6898 15.762 47.2218 15.006V16H48.5798V11.618C48.5798 9.826 47.5018 8.594 45.5558 8.594ZM45.0798 15.076C44.1698 15.076 43.4698 14.6 43.4698 13.816C43.4698 13.032 44.2818 12.486 45.2478 12.486C45.9618 12.486 46.6338 12.584 47.2218 12.766V13.732C46.9838 14.628 45.9758 15.076 45.0798 15.076ZM54.2662 8.594C53.2722 8.594 52.3902 9.112 51.9562 9.84V6.214H50.5842V16H51.9562V11.506C51.9562 10.568 52.8662 9.798 53.9582 9.798C54.9382 9.798 55.6242 10.554 55.6242 11.632V16H56.9822V11.394C56.9822 9.756 55.8622 8.594 54.2662 8.594ZM66.9889 8.594C65.8689 8.594 64.9729 9.126 64.4129 10.008V8.762H63.0409V18.408H64.4129V14.74C64.9729 15.636 65.8689 16.168 66.9889 16.168C68.8929 16.168 70.3209 14.6 70.3209 12.374C70.3209 10.162 68.8929 8.594 66.9889 8.594ZM66.6529 14.964C65.3509 14.964 64.4129 13.886 64.4129 12.374C64.4129 10.862 65.3509 9.798 66.6529 9.798C67.9829 9.798 68.9209 10.862 68.9209 12.374C68.9209 13.886 67.9829 14.964 66.6529 14.964ZM73.4503 10.148V8.762H72.0643V16H73.4503V11.884C73.5763 10.624 74.6403 9.798 76.1383 9.798V8.594C74.8923 8.594 73.9123 9.196 73.4503 10.148ZM80.7017 16.168C82.7597 16.168 84.4957 14.432 84.4957 12.374C84.4957 10.316 82.7597 8.594 80.7017 8.594C78.6297 8.594 76.8797 10.316 76.8797 12.374C76.8797 14.432 78.6297 16.168 80.7017 16.168ZM80.7017 14.964C79.3717 14.964 78.2657 13.788 78.2657 12.374C78.2657 10.974 79.3717 9.798 80.7017 9.798C82.0037 9.798 83.1097 10.974 83.1097 12.374C83.1097 13.788 82.0037 14.964 80.7017 14.964ZM88.0214 7.964C88.0214 7.46 88.3574 7.096 88.7634 7.096C89.0714 7.096 89.3514 7.208 89.5054 7.362L90.0094 6.438C89.6174 6.116 89.0854 5.92 88.5674 5.92C87.4474 5.92 86.6634 6.732 86.6634 7.894V8.762H85.5714V9.938H86.6634V16H88.0214V9.938H89.7294V8.762H88.0214V7.964ZM91.8483 7.558C92.2963 7.558 92.6743 7.166 92.6743 6.718C92.6743 6.284 92.2963 5.892 91.8483 5.892C91.3723 5.892 91.0083 6.284 91.0083 6.718C91.0083 7.166 91.3723 7.558 91.8483 7.558ZM91.1483 16H92.5343V8.762H91.1483V16ZM94.5393 16H95.9113V6.214H94.5393V16ZM101.248 14.936C100.002 14.936 99.1199 14.068 98.9379 12.864H104.636C104.636 10.274 103.362 8.594 101.15 8.594C99.1479 8.594 97.5379 10.19 97.5379 12.36C97.5379 14.586 99.2459 16.168 101.262 16.168C102.284 16.168 103.544 15.734 104.188 15.048L103.32 14.152C102.886 14.6 102.004 14.936 101.248 14.936ZM101.206 9.826C102.452 9.826 103.138 10.638 103.292 11.758H98.9519C99.1759 10.582 100.086 9.826 101.206 9.826Z" fill="#9B9B9B"/>
<path d="M0 16.6662V20H3.33379L13.1707 10.163L9.8369 6.82922L0 16.6662Z" fill="#9B9B9B"/>
<path d="M15.74 6.33586L13.6642 4.26004C13.3174 3.91332 12.7529 3.91332 12.4062 4.26004L10.7793 5.88693L14.1131 9.22072L15.74 7.59383C16.0867 7.24711 16.0867 6.68258 15.74 6.33586Z" fill="#9B9B9B"/>
</svg>
